<?xml version="1.0" encoding="utf-8"?>
<!-- Generator: Adobe Illustrator 19.2.1, SVG Export Plug-In . SVG Version: 6.00 Build 0)  -->
<svg version="1.1" id="Layer_1" xmlns="http://www.w3.org/2000/svg" xmlns:xlink="http://www.w3.org/1999/xlink" x="0px" y="0px"
	 viewBox="0 0 251.8 33.4" style="enable-background:new 0 0 251.8 33.4;" xml:space="preserve">
<style type="text/css">
	.st0{fill:#FFFFFF;}
	.st1{fill:#F5C400;}
</style>
<g>
	<g>
		<path class="st0" d="M171.3,33.2v-0.3c0.4,0,0.7-0.1,0.7-0.4c0-0.1,0-0.3-0.1-0.4l-0.2-0.6h-2.2l-0.2,0.5c0,0.1-0.1,0.3-0.1,0.4
			c0,0.4,0.5,0.5,0.8,0.5v0.3h-2.5v-0.3c0.6,0,0.9-0.2,1.1-0.8l1.7-4.6l-0.1-0.1c0.7-0.2,0.9-0.3,1.2-0.6c0.1,0.4,0.1,0.5,0.3,0.9
			l1.4,4.2c0.2,0.7,0.4,0.9,1,1v0.3H171.3z M170.7,28.3l-0.9,2.5h1.8L170.7,28.3z"/>
		<path class="st0" d="M151.7,31.8c-0.3,0.4-0.9,1.5-2.6,1.5c-1.9,0-3-1.4-3-3.2c0-1.7,1-3.3,3.1-3.3c1.1,0,1.7,0.5,2,0.7l0.4-0.4
			l0,1.9l-0.3,0.1c-0.1-0.4-0.3-0.6-0.7-1.1c-0.2-0.2-0.6-0.6-1.3-0.6c-1.1,0-2,0.9-2,2.5c0,1.3,0.7,2.6,2.1,2.6
			c1.1,0,1.5-0.6,1.8-1.1L151.7,31.8z"/>
		<path class="st0" d="M152.1,33.2v-0.3c0.7-0.1,0.7-0.2,0.7-0.8c0-0.2,0-0.4,0-0.7v-2.6c0-0.4,0-0.8,0-1c0-0.4-0.2-0.4-0.7-0.5
			v-0.3h2.6v0.3c-0.5,0.1-0.7,0.1-0.8,0.4c0,0.2-0.1,0.7-0.1,1v0.8c0.5,0,0.9,0,1.4,0c0.5,0,0.9,0,1.5,0v-1c0-1.1,0-1.2-0.9-1.2
			v-0.3h2.7v0.3c-0.7,0.1-0.7,0.1-0.7,1.3v2.6c0,0.2,0,1,0,1.2c0,0.3,0.2,0.4,0.7,0.4v0.3H156v-0.3c0.6-0.1,0.8-0.1,0.8-0.5
			c0-0.2,0-0.4,0-0.9v-1.1c-0.5,0-0.9,0-1.4,0c-0.5,0-0.9,0-1.5,0v1.1c0,1.3,0,1.3,0.8,1.4v0.3H152.1z"/>
		<path class="st0" d="M159.1,33.2v-0.3c0.6-0.1,0.7-0.1,0.7-0.8v-0.8v-2.5c0-1.3,0-1.3-0.7-1.4v-0.3h2.6v0.3
			c-0.7,0.1-0.7,0.1-0.7,1.4v2.5c0,0.2,0,0.9,0,1.1c0,0.4,0.2,0.5,0.7,0.5v0.3H159.1z"/>
		<path class="st0" d="M143.4,33.2v-0.3c0.6-0.1,0.7-0.1,0.7-0.8v-0.8v-2.5c0-1.3,0-1.3-0.7-1.4v-0.3h2.5v0.3
			c-0.7,0.1-0.7,0.1-0.7,1.4v2.5c0,0.2,0,0.9,0,1.1c0,0.4,0.2,0.5,0.7,0.5v0.3H143.4z"/>
		<path class="st0" d="M140.1,33.2v-0.3c0.8-0.1,0.8-0.1,0.8-1.2v-3.1l-2.1,4.7h-0.5l-2-4.8l0,3.6c0,0.6,0.1,0.7,0.7,0.8v0.3h-2.1
			v-0.3c0.5,0,0.7-0.1,0.7-0.5c0-0.2,0-0.7,0.1-1l0.1-2.6c0-0.2,0-0.5,0-0.7c0-0.6-0.1-0.7-0.7-0.7v-0.3h1.9l1.9,4.7l2.1-4.7h1.9
			v0.4c-0.7,0-0.7,0.1-0.7,1.1V31c0,0.4,0,0.9,0,1.3c0,0.5,0.2,0.5,0.7,0.6v0.3H140.1z"/>
		<path class="st0" d="M174,33.2v-0.3c0.5,0,0.7,0,0.8-0.4c0.1-0.4,0.1-4.1,0.1-4.7c-0.3-0.3-0.5-0.4-0.9-0.4v-0.3h1.8
			c0.5,0.7,0.6,0.9,1.5,2l1.7,2.1v-2.7c0-1,0-1-1-1.1v-0.3h2.4v0.3c-0.7,0-0.7,0.1-0.7,1.1l-0.1,4.7h-0.4l-0.5-0.7
			c-0.3-0.3-0.6-0.7-0.8-1l-2.4-3v3.2c0,1,0.1,1,1,1.1v0.3H174z"/>
		<path class="st0" d="M127.4,30.1c0,2.1-1.4,3.2-3.1,3.2c-1.8,0-3.2-1.3-3.2-3.2c0-1.7,1.1-3.2,3.1-3.2
			C126.1,26.9,127.4,28.3,127.4,30.1z M124.3,32.8c0.3,0,0.8-0.2,1.2-0.8c0.4-0.7,0.5-1.3,0.5-2.1c0-0.8-0.2-1.5-0.7-2
			c-0.2-0.2-0.6-0.5-1.1-0.5c-0.5,0-0.9,0.3-1.1,0.5c-0.4,0.5-0.6,1.2-0.6,2c0,0.8,0.1,1.4,0.6,2.1C123.5,32.6,124,32.8,124.3,32.8z
			"/>
		<path class="st0" d="M128.2,32.1c0-0.1,0-0.9,0-1.1l0-2.2c0-0.2,0-0.9-0.1-1.1c-0.1-0.3-0.3-0.3-0.7-0.4v-0.3h4.5l0.1,1.5h-0.3
			c-0.2-1-0.5-1-1.7-1c-0.4,0-0.5,0-0.7,0l0,2.1h0.8c0.7,0,0.9-0.1,1-0.7h0.3v2H131c0-0.7-0.4-0.8-1.1-0.8h-0.7l0,1.8
			c0,0.7,0.1,0.7,0.7,0.8v0.3h-2.5v-0.3C128.1,32.8,128.1,32.7,128.2,32.1z"/>
		<path class="st0" d="M79.3,33.2v-0.3c0.6-0.1,0.7-0.1,0.7-0.8v-0.8v-2.5c0-1.3,0-1.3-0.7-1.4V27h2.6v0.3c-0.7,0.1-0.7,0.1-0.7,1.4
			v2.5c0,0.2,0,0.9,0,1.1c0,0.4,0.2,0.5,0.7,0.5v0.3H79.3z"/>
		<path class="st0" d="M103.4,33.2v-0.3c0.6-0.1,0.7-0.1,0.7-0.8v-0.8v-2.5c0-1.3,0-1.3-0.7-1.4V27h2.5v0.3
			c-0.7,0.1-0.7,0.1-0.7,1.4v2.5c0,0.2,0,0.9,0,1.1c0,0.4,0.2,0.5,0.7,0.5v0.3H103.4z"/>
		<path class="st0" d="M72.4,33.2v-0.3c0.5,0,0.7,0,0.8-0.4c0.1-0.4,0.1-4.1,0.1-4.7c-0.3-0.3-0.5-0.4-0.9-0.4V27h1.8
			c0.5,0.7,0.6,0.9,1.5,2l1.7,2.1v-2.7c0-1,0-1-1-1.1V27h2.4v0.3c-0.7,0-0.7,0.1-0.7,1.1L78,33.2h-0.4l-0.5-0.7
			c-0.3-0.3-0.6-0.7-0.8-1l-2.4-3v3.2c0,1,0.1,1,1,1.1v0.3H72.4z"/>
		<path class="st0" d="M98.9,31.2l0.3,0c0.3,1,0.9,1.5,1.8,1.5c0.7,0,1.2-0.3,1.2-0.9c0-0.7-0.7-1-1-1.1c-0.2-0.1-0.5-0.2-0.7-0.3
			c-0.5-0.2-1.5-0.6-1.5-1.8c0-1.1,0.9-1.8,2-1.8c0.4,0,0.9,0.1,1.4,0.4l0.4-0.3l0.2,1.8l-0.3,0.1c-0.1-0.4-0.2-0.6-0.4-0.9
			c-0.3-0.4-0.7-0.6-1.2-0.6c-0.7,0-1,0.3-1,0.8c0,0.7,0.7,1,1.4,1.2c0.3,0.1,0.6,0.2,0.9,0.4c0.5,0.3,0.9,0.8,0.9,1.6
			c0,1.1-0.9,1.9-2.2,1.9c-0.8,0-1.3-0.3-1.6-0.5L99,32.4L98.9,31.2z"/>
		<path class="st0" d="M107.9,33.2v-0.3c0.6,0,0.7-0.2,0.7-0.7v-4.5h-0.8c-0.7,0-1.2,0-1.2,1.1h-0.3l0.1-1.7h5.6l0.1,1.7h-0.3
			c-0.1-1.1-0.5-1.1-1.2-1.1h-0.8v4.5c0,0.5,0.2,0.7,0.7,0.7l0,0.3H107.9z"/>
		<path class="st0" d="M68.3,27v0.3c-0.8,0.1-0.8,0.1-0.8,1.4v1.4c0,0.7,0,1.4,0.4,2c0.3,0.5,0.8,0.5,1.1,0.5c0.9,0,1.4-0.5,1.6-1.2
			c0.2-0.6,0.2-1.7,0.2-2.4c0-0.2,0-1,0-1.2c0-0.6-0.3-0.6-0.9-0.6V27h2.3v0.3c-0.6,0-0.7,0.1-0.7,0.7c0,0.1-0.1,1.9-0.1,2.1
			c0,0.5,0,0.9-0.1,1.4c-0.4,1.7-2,1.7-2.5,1.7c-0.3,0-1-0.1-1.6-0.4c-0.9-0.6-0.9-1.5-0.9-2.5v-1.4c0-0.7,0-1,0-1.1
			c-0.1-0.4-0.2-0.5-0.7-0.5V27H68.3z"/>
		<path class="st0" d="M88.3,27v0.3c-0.6,0.1-0.7,0.3-1.2,1.5l-1.9,4.5h-0.3l-1.7-4.5c-0.4-1.2-0.5-1.3-1.1-1.4V27h2.9v0.3
			c-0.5,0-0.8,0-0.8,0.4c0,0.2,0,0.3,0.2,0.8l1.1,3.1l1.3-3.2c0.1-0.2,0.2-0.5,0.2-0.7c0-0.4-0.4-0.5-0.8-0.5V27H88.3z"/>
		<path class="st0" d="M113.9,33.2v-0.3c0.5-0.1,0.7-0.1,0.8-0.2c0.1-0.1,0.1-0.3,0.1-1v-1.1l-1.6-2.5c-0.4-0.7-0.5-0.7-1-0.7V27
			h3.2v0.3c-0.6,0-0.9,0-0.9,0.3c0,0.2,0.1,0.4,0.3,0.6l0.9,1.5l0.9-1.5c0.2-0.3,0.2-0.5,0.2-0.6c0-0.3-0.3-0.3-0.7-0.3V27h2.4v0.3
			c-0.6,0-0.8,0.2-1.5,1.3l-1,1.6v1.3c0,1.1,0,1.2,0.9,1.3v0.3H113.9z"/>
		<path class="st0" d="M88.3,33.2v-0.3c0.6-0.1,0.7-0.1,0.7-0.8c0-0.1,0-0.9,0-1.1v-2.2c0-0.2,0-0.9-0.1-1.1
			c-0.1-0.3-0.3-0.3-0.7-0.4V27h4.4l0,1.5h-0.3c-0.1-0.8-0.5-0.9-1.6-0.9h-0.8v2.2h0.7c0.8,0,0.9-0.2,1-0.7H92v2h-0.3
			c0-0.7-0.2-0.8-1-0.8h-0.7V32c0,0.4,0.2,0.6,1,0.6c0.9,0,1.5,0.1,1.7-1h0.3C93,32,93,32.7,93,33.2H88.3z"/>
		<path class="st0" d="M167.9,30.5v0.3c-0.6,0-0.6,0.2-0.6,1.4v0.5c-0.5,0.3-1.2,0.7-2.4,0.7c-2.1,0-3.1-1.6-3.1-3.2
			c0-2,1.3-3.2,3-3.2c1,0,1.7,0.4,2.2,0.7l0.3-0.4l0,1.9l-0.3,0c-0.1-0.4-0.3-0.8-0.8-1.2c-0.2-0.2-0.6-0.5-1.2-0.5
			c-1.1,0-2,0.9-2,2.7c0,1.4,0.7,2.6,1.9,2.6c0.7,0,1-0.5,1.1-0.5c0.1-0.2,0.1-0.3,0.1-0.6c0-0.8-0.1-0.8-0.8-0.9v-0.3H167.9z"/>
		<path class="st0" d="M95.2,29.9c0.2,0,0.4,0.1,0.6,0.1c0.7,0,1.2-0.5,1.3-1c0-0.7-0.3-1.3-1.5-1.3c-0.2,0-0.3,0-0.4,0V29.9z
			 M95.2,31.2c0,1.4,0,1.6,0.7,1.6v0.3h-2.6v-0.3c0.7-0.1,0.7-0.2,0.7-0.8c0-0.3,0-0.5,0-0.8V29c0-0.7,0-1,0-1.2
			c0-0.3-0.2-0.4-0.7-0.4V27l2.8,0c1.5,0,2,0.7,2,1.6c0,0.6-0.4,1.4-1.2,1.6l1.1,1.9c0.4,0.7,0.6,0.9,1.1,1v0.2c-0.1,0-0.3,0-0.4,0
			c-1.2,0-1.6-0.4-2.1-1.4l-0.3-0.7c-0.4-0.8-0.5-0.7-1.1-0.7L95.2,31.2z"/>
	</g>
</g>
<rect x="55.9" y="0.3" class="st0" width="0.7" height="33"/>
<path class="st1" d="M23,27.6l-9.4-12.9v9.4h3.8v9.3H0v-9.3h3.5V9.6H0V0.3h13.7l9.4,13.1l9.4-13.1h13.7v9.3h-3.5v14.5h3.5v9.3H28.8
	v-9.3h3.8v-9.4L23,27.6z"/>
<g>
	<path class="st0" d="M74.3,0.3h4.1l-5,8.1l5,9.9h-4.2l-4.3-9.2h0v9.2H66v-18h3.8V8h0L74.3,0.3z"/>
	<path class="st0" d="M80.2,18.3v-18h5.1l4.8,12.5h0V0.3h3.5v18h-5L83.7,5.1h0v13.2H80.2z"/>
	<path class="st0" d="M96.8,18.3v-18h3.8v18H96.8z"/>
	<path class="st0" d="M112,5.8c0-1.7-0.2-3.1-2.2-3.1c-2.3,0-2.3,3.2-2.3,6.7c0,5.6,0.5,6.6,2.7,6.6c0.6,0,1.3-0.2,1.9-0.4v-4h-2
		V8.9h5.8V18c-1,0.2-3.6,0.6-5.1,0.6c-6.3,0-7.1-2.6-7.1-9.5c0-4.5,0.2-9.2,6.4-9.2c3.7,0,6,2.1,5.8,5.8H112z"/>
	<path class="st0" d="M127.3,7.5V0.3h3.8v18h-3.8v-8h-4.3v8h-3.8v-18h3.8v7.2H127.3z"/>
	<path class="st0" d="M145.1,0.3v3h-4.2v15h-3.8v-15h-4.2v-3H145.1z"/>
	<path class="st0" d="M150.6,10.3v2.5h-6.1v-2.5H150.6z"/>
	<path class="st0" d="M151.7,0.3h3.9l2.3,12.7h0l2.8-12.7h4.4L168,13h0l2.2-12.7h3.7l-4,18h-4.2L163,5.1h0l-3.1,13.2h-4.1L151.7,0.3
		z"/>
	<path class="st0" d="M173.7,18.3l5-18h5l4.9,18h-4l-1-4h-5.1l-1,4H173.7z M181,3.8L181,3.8l-1.8,7.8h3.6L181,3.8z"/>
	<path class="st0" d="M190.4,18.3v-18h3.8v15h5.6v3H190.4z"/>
	<path class="st0" d="M201.5,18.3v-18h3.8v15h5.6v3H201.5z"/>
	<path class="st0" d="M211.2,18.3l5-18h5l4.9,18h-4l-1-4h-5.1l-1,4H211.2z M218.4,3.8L218.4,3.8l-1.8,7.8h3.6L218.4,3.8z"/>
	<path class="st0" d="M227.6,9.3c0-4.8,0-9.3,6.2-9.3c3.8,0,5.4,2.1,5.2,6h-3.7c0-2.4-0.4-3.3-1.5-3.3c-2.1,0-2.4,2-2.4,6.6
		s0.3,6.6,2.4,6.6c1.8,0,1.7-2.2,1.7-3.7h3.7c0,4.8-1.9,6.4-5.4,6.4C227.6,18.6,227.6,14,227.6,9.3z"/>
	<path class="st0" d="M241.7,18.3v-18h9.8v2.8h-6.1v4.4h5.6v2.8h-5.6v5.3h6.3v2.8H241.7z"/>
</g>
</svg>
