<?xml version="1.0" encoding="utf-8"?>
<!-- Generator: Adobe Illustrator 19.2.1, SVG Export Plug-In . SVG Version: 6.00 Build 0)  -->
<svg version="1.1" id="Layer_1" xmlns="http://www.w3.org/2000/svg" xmlns:xlink="http://www.w3.org/1999/xlink" x="0px" y="0px"
	 viewBox="0 0 292.8 33" style="enable-background:new 0 0 292.8 33;" xml:space="preserve">
<style type="text/css">
	.st0{fill:#FFFFFF;}
	.st1{fill:#F5C400;}
</style>
<g>
	<g>
		<path class="st0" d="M171.3,32.9v-0.3c0.4,0,0.7-0.1,0.7-0.4c0-0.1,0-0.3-0.1-0.4l-0.2-0.6h-2.2l-0.2,0.5c0,0.1-0.1,0.3-0.1,0.4
			c0,0.4,0.5,0.5,0.8,0.5v0.3h-2.5v-0.3c0.6,0,0.9-0.2,1.1-0.8l1.7-4.6l-0.1-0.1c0.7-0.2,0.9-0.3,1.2-0.6c0.1,0.4,0.1,0.5,0.3,0.9
			l1.4,4.2c0.2,0.7,0.4,0.9,1,1v0.3H171.3z M170.7,28l-0.9,2.5h1.8L170.7,28z"/>
		<path class="st0" d="M151.7,31.5c-0.3,0.4-0.9,1.5-2.6,1.5c-1.9,0-3-1.4-3-3.2c0-1.7,1-3.3,3.1-3.3c1.1,0,1.7,0.5,2,0.7l0.4-0.4
			l0,1.9l-0.3,0.1c-0.1-0.4-0.3-0.6-0.7-1.1c-0.2-0.2-0.6-0.6-1.3-0.6c-1.1,0-2,0.9-2,2.5c0,1.3,0.7,2.6,2.1,2.6
			c1.1,0,1.5-0.6,1.8-1.1L151.7,31.5z"/>
		<path class="st0" d="M152.1,32.9v-0.3c0.7-0.1,0.7-0.2,0.7-0.8c0-0.2,0-0.4,0-0.7v-2.6c0-0.4,0-0.8,0-1c0-0.4-0.2-0.4-0.7-0.5
			v-0.3h2.6v0.3c-0.5,0.1-0.7,0.1-0.8,0.4c0,0.2-0.1,0.7-0.1,1v0.8c0.5,0,0.9,0,1.4,0c0.5,0,0.9,0,1.5,0v-1c0-1.1,0-1.2-0.9-1.2
			v-0.3h2.7v0.3c-0.7,0.1-0.7,0.1-0.7,1.3v2.6c0,0.2,0,1,0,1.2c0,0.3,0.2,0.4,0.7,0.4v0.3H156v-0.3c0.6-0.1,0.8-0.1,0.8-0.5
			c0-0.2,0-0.4,0-0.9v-1.1c-0.5,0-0.9,0-1.4,0c-0.5,0-0.9,0-1.5,0v1.1c0,1.3,0,1.3,0.8,1.4v0.3H152.1z"/>
		<path class="st0" d="M159.1,32.9v-0.3c0.6-0.1,0.7-0.1,0.7-0.8V31v-2.5c0-1.3,0-1.3-0.7-1.4v-0.3h2.6v0.3
			c-0.7,0.1-0.7,0.1-0.7,1.4V31c0,0.2,0,0.9,0,1.1c0,0.4,0.2,0.5,0.7,0.5v0.3H159.1z"/>
		<path class="st0" d="M143.4,32.9v-0.3c0.6-0.1,0.7-0.1,0.7-0.8V31v-2.5c0-1.3,0-1.3-0.7-1.4v-0.3h2.5v0.3
			c-0.7,0.1-0.7,0.1-0.7,1.4V31c0,0.2,0,0.9,0,1.1c0,0.4,0.2,0.5,0.7,0.5v0.3H143.4z"/>
		<path class="st0" d="M140.1,32.9v-0.3c0.8-0.1,0.8-0.1,0.8-1.2v-3.1l-2.1,4.7h-0.5l-2-4.8l0,3.6c0,0.6,0.1,0.7,0.7,0.8v0.3h-2.1
			v-0.3c0.5,0,0.7-0.1,0.7-0.5c0-0.2,0-0.7,0.1-1l0.1-2.6c0-0.2,0-0.5,0-0.7c0-0.6-0.1-0.7-0.7-0.7v-0.3h1.9l1.9,4.7l2.1-4.7h1.9
			v0.4c-0.7,0-0.7,0.1-0.7,1.1v2.5c0,0.4,0,0.9,0,1.3c0,0.5,0.2,0.5,0.7,0.6v0.3H140.1z"/>
		<path class="st0" d="M174,32.9v-0.3c0.5,0,0.7,0,0.8-0.4c0.1-0.4,0.1-4.1,0.1-4.7c-0.3-0.3-0.5-0.4-0.9-0.4v-0.3h1.8
			c0.5,0.7,0.6,0.9,1.5,2l1.7,2.1v-2.7c0-1,0-1-1-1.1v-0.3h2.4v0.3c-0.7,0-0.7,0.1-0.7,1.1l-0.1,4.7h-0.4l-0.5-0.7
			c-0.3-0.3-0.6-0.7-0.8-1l-2.4-3v3.2c0,1,0.1,1,1,1.1v0.3H174z"/>
		<path class="st0" d="M127.4,29.8c0,2.1-1.4,3.2-3.1,3.2c-1.8,0-3.2-1.3-3.2-3.2c0-1.7,1.1-3.2,3.1-3.2
			C126.1,26.6,127.4,27.9,127.4,29.8z M124.3,32.5c0.3,0,0.8-0.2,1.2-0.8c0.4-0.7,0.5-1.3,0.5-2.1c0-0.8-0.2-1.5-0.7-2
			c-0.2-0.2-0.6-0.5-1.1-0.5c-0.5,0-0.9,0.3-1.1,0.5c-0.4,0.5-0.6,1.2-0.6,2c0,0.8,0.1,1.4,0.6,2.1C123.5,32.3,124,32.5,124.3,32.5z
			"/>
		<path class="st0" d="M128.2,31.7c0-0.1,0-0.9,0-1.1l0-2.2c0-0.2,0-0.9-0.1-1.1c-0.1-0.3-0.3-0.3-0.7-0.4v-0.3h4.5l0.1,1.5h-0.3
			c-0.2-1-0.5-1-1.7-1c-0.4,0-0.5,0-0.7,0l0,2.1h0.8c0.7,0,0.9-0.1,1-0.7h0.3v2H131c0-0.7-0.4-0.8-1.1-0.8h-0.7l0,1.8
			c0,0.7,0.1,0.7,0.7,0.8v0.3h-2.5v-0.3C128.1,32.5,128.1,32.4,128.2,31.7z"/>
		<path class="st0" d="M79.3,32.8v-0.3c0.6-0.1,0.7-0.1,0.7-0.8v-0.8v-2.5c0-1.3,0-1.3-0.7-1.4v-0.3h2.6V27
			c-0.7,0.1-0.7,0.1-0.7,1.4v2.5c0,0.2,0,0.9,0,1.1c0,0.4,0.2,0.5,0.7,0.5v0.3H79.3z"/>
		<path class="st0" d="M103.4,32.8v-0.3c0.6-0.1,0.7-0.1,0.7-0.8v-0.8v-2.5c0-1.3,0-1.3-0.7-1.4v-0.3h2.5V27
			c-0.7,0.1-0.7,0.1-0.7,1.4v2.5c0,0.2,0,0.9,0,1.1c0,0.4,0.2,0.5,0.7,0.5v0.3H103.4z"/>
		<path class="st0" d="M72.4,32.8v-0.3c0.5,0,0.7,0,0.8-0.4c0.1-0.4,0.1-4.1,0.1-4.7c-0.3-0.3-0.5-0.4-0.9-0.4v-0.3h1.8
			c0.5,0.7,0.6,0.9,1.5,2l1.7,2.1v-2.7c0-1,0-1-1-1.1v-0.3h2.4V27c-0.7,0-0.7,0.1-0.7,1.1L78,32.9h-0.4l-0.5-0.7
			c-0.3-0.3-0.6-0.7-0.8-1l-2.4-3v3.2c0,1,0.1,1,1,1.1v0.3H72.4z"/>
		<path class="st0" d="M98.9,30.9l0.3,0c0.3,1,0.9,1.5,1.8,1.5c0.7,0,1.2-0.3,1.2-0.9c0-0.7-0.7-1-1-1.1c-0.2-0.1-0.5-0.2-0.7-0.3
			c-0.5-0.2-1.5-0.6-1.5-1.8c0-1.1,0.9-1.8,2-1.8c0.4,0,0.9,0.1,1.4,0.4l0.4-0.3l0.2,1.8l-0.3,0.1c-0.1-0.4-0.2-0.6-0.4-0.9
			c-0.3-0.4-0.7-0.6-1.2-0.6c-0.7,0-1,0.3-1,0.8c0,0.7,0.7,1,1.4,1.2c0.3,0.1,0.6,0.2,0.9,0.4c0.5,0.3,0.9,0.8,0.9,1.6
			c0,1.1-0.9,1.9-2.2,1.9c-0.8,0-1.3-0.3-1.6-0.5L99,32.1L98.9,30.9z"/>
		<path class="st0" d="M107.9,32.8v-0.3c0.6,0,0.7-0.2,0.7-0.7v-4.5h-0.8c-0.7,0-1.2,0-1.2,1.1h-0.3l0.1-1.7h5.6l0.1,1.7h-0.3
			c-0.1-1.1-0.5-1.1-1.2-1.1h-0.8v4.5c0,0.5,0.2,0.7,0.7,0.7l0,0.3H107.9z"/>
		<path class="st0" d="M68.3,26.7V27c-0.8,0.1-0.8,0.1-0.8,1.4v1.4c0,0.7,0,1.4,0.4,2c0.3,0.5,0.8,0.5,1.1,0.5
			c0.9,0,1.4-0.5,1.6-1.2c0.2-0.6,0.2-1.7,0.2-2.4c0-0.2,0-1,0-1.2c0-0.6-0.3-0.6-0.9-0.6v-0.3h2.3V27c-0.6,0-0.7,0.1-0.7,0.7
			c0,0.1-0.1,1.9-0.1,2.1c0,0.5,0,0.9-0.1,1.4c-0.4,1.7-2,1.7-2.5,1.7c-0.3,0-1-0.1-1.6-0.4c-0.9-0.6-0.9-1.5-0.9-2.5v-1.4
			c0-0.7,0-1,0-1.1c-0.1-0.4-0.2-0.5-0.7-0.5v-0.3H68.3z"/>
		<path class="st0" d="M88.3,26.7V27c-0.6,0.1-0.7,0.3-1.2,1.5L85.2,33h-0.3l-1.7-4.5c-0.4-1.2-0.5-1.3-1.1-1.4v-0.3h2.9V27
			c-0.5,0-0.8,0-0.8,0.4c0,0.2,0,0.3,0.2,0.8l1.1,3.1l1.3-3.2c0.1-0.2,0.2-0.5,0.2-0.7c0-0.4-0.4-0.5-0.8-0.5v-0.3H88.3z"/>
		<path class="st0" d="M113.9,32.8v-0.3c0.5-0.1,0.7-0.1,0.8-0.2c0.1-0.1,0.1-0.3,0.1-1v-1.1l-1.6-2.5c-0.4-0.7-0.5-0.7-1-0.7v-0.3
			h3.2V27c-0.6,0-0.9,0-0.9,0.3c0,0.2,0.1,0.4,0.3,0.6l0.9,1.5l0.9-1.5c0.2-0.3,0.2-0.5,0.2-0.6c0-0.3-0.3-0.3-0.7-0.3v-0.3h2.4V27
			c-0.6,0-0.8,0.2-1.5,1.3l-1,1.6v1.3c0,1.1,0,1.2,0.9,1.3v0.3H113.9z"/>
		<path class="st0" d="M88.3,32.8v-0.3c0.6-0.1,0.7-0.1,0.7-0.8c0-0.1,0-0.9,0-1.1v-2.2c0-0.2,0-0.9-0.1-1.1
			c-0.1-0.3-0.3-0.3-0.7-0.4v-0.3h4.4l0,1.5h-0.3c-0.1-0.8-0.5-0.9-1.6-0.9h-0.8v2.2h0.7c0.8,0,0.9-0.2,1-0.7H92v2h-0.3
			c0-0.7-0.2-0.8-1-0.8h-0.7v1.7c0,0.4,0.2,0.6,1,0.6c0.9,0,1.5,0.1,1.7-1h0.3C93,31.7,93,32.4,93,32.8H88.3z"/>
		<path class="st0" d="M167.9,30.2v0.3c-0.6,0-0.6,0.2-0.6,1.4v0.5c-0.5,0.3-1.2,0.7-2.4,0.7c-2.1,0-3.1-1.6-3.1-3.2
			c0-2,1.3-3.2,3-3.2c1,0,1.7,0.4,2.2,0.7l0.3-0.4l0,1.9l-0.3,0c-0.1-0.4-0.3-0.8-0.8-1.2c-0.2-0.2-0.6-0.5-1.2-0.5
			c-1.1,0-2,0.9-2,2.7c0,1.4,0.7,2.6,1.9,2.6c0.7,0,1-0.5,1.1-0.5c0.1-0.2,0.1-0.3,0.1-0.6c0-0.8-0.1-0.8-0.8-0.9v-0.3H167.9z"/>
		<path class="st0" d="M95.2,29.5c0.2,0,0.4,0.1,0.6,0.1c0.7,0,1.2-0.5,1.3-1c0-0.7-0.3-1.3-1.5-1.3c-0.2,0-0.3,0-0.4,0V29.5z
			 M95.2,30.9c0,1.4,0,1.6,0.7,1.6v0.3h-2.6v-0.3c0.7-0.1,0.7-0.2,0.7-0.8c0-0.3,0-0.5,0-0.8v-2.2c0-0.7,0-1,0-1.2
			c0-0.3-0.2-0.4-0.7-0.4v-0.3l2.8,0c1.5,0,2,0.7,2,1.6c0,0.6-0.4,1.4-1.2,1.6l1.1,1.9c0.4,0.7,0.6,0.9,1.1,1V33c-0.1,0-0.3,0-0.4,0
			c-1.2,0-1.6-0.4-2.1-1.4l-0.3-0.7c-0.4-0.8-0.5-0.7-1.1-0.7L95.2,30.9z"/>
	</g>
</g>
<rect x="55.9" y="0" class="st0" width="0.7" height="33"/>
<path class="st1" d="M23,27.3l-9.4-12.9v9.4h3.8V33H0v-9.3h3.5V9.3H0V0h13.7l9.4,13.1L32.5,0h13.7v9.3h-3.5v14.5h3.5V33H28.8v-9.3
	h3.8v-9.4L23,27.3z"/>
<g>
	<path class="st0" d="M66.3,19V1H70v15h5.6v3H66.3z"/>
	<path class="st0" d="M77.3,19V1h3.8v18H77.3z"/>
	<path class="st0" d="M82.8,1h3.9l2.8,13.1h0L92.8,1h3.7l-4.8,18h-4.4L82.8,1z"/>
	<path class="st0" d="M98.2,19V1h3.8v18H98.2z"/>
	<path class="st0" d="M105.2,19V1h5.1l4.8,12.5h0V1h3.5v18h-5l-4.9-13.2h0V19H105.2z"/>
	<path class="st0" d="M130.1,6.5c0-1.7-0.2-3.1-2.2-3.1c-2.3,0-2.3,3.2-2.3,6.7c0,5.6,0.5,6.6,2.7,6.6c0.6,0,1.3-0.2,1.9-0.4v-4h-2
		V9.6h5.8v9.1c-1,0.2-3.6,0.6-5.1,0.6c-6.3,0-7.1-2.6-7.1-9.5c0-4.5,0.2-9.2,6.4-9.2c3.7,0,6,2.1,5.8,5.8H130.1z"/>
	<path class="st0" d="M142,19.3c-4.7,0-5.5-2.7-5.3-5.9h3.8c0,1.7,0.1,3.2,2.1,3.2c1.3,0,1.9-0.8,1.9-2c0-3.2-7.6-3.4-7.6-8.8
		c0-2.8,1.3-5.1,5.9-5.1c3.7,0,5.5,1.6,5.2,5.4h-3.7c0-1.3-0.2-2.7-1.8-2.7c-1.2,0-1.9,0.7-1.9,1.9c0,3.4,7.6,3.1,7.6,8.8
		C148.3,18.8,144.9,19.3,142,19.3z"/>
	<path class="st0" d="M161.7,1v3h-4.2v15h-3.8V4h-4.2V1H161.7z"/>
	<path class="st0" d="M163.3,10c0-4.8,0-9.3,6.2-9.3s6.2,4.5,6.2,9.3c0,4.7,0,9.3-6.2,9.3S163.3,14.7,163.3,10z M171.9,10
		c0-4.6-0.3-6.6-2.4-6.6c-2.1,0-2.4,2-2.4,6.6s0.3,6.6,2.4,6.6C171.7,16.6,171.9,14.6,171.9,10z"/>
	<path class="st0" d="M178.8,19V1h5.1l4.8,12.5h0V1h3.5v18h-5l-4.9-13.2h0V19H178.8z"/>
	<path class="st0" d="M199.6,19l5-18h5l4.9,18h-4l-1-4h-5.1l-1,4H199.6z M206.9,4.5L206.9,4.5l-1.8,7.8h3.6L206.9,4.5z"/>
	<path class="st0" d="M213.7,1h3.9l2.3,12.7h0L222.9,1h4.4l2.7,12.7h0L232.3,1h3.7l-4,18h-4.2L225,5.8h0L221.8,19h-4.1L213.7,1z"/>
	<path class="st0" d="M235.7,19l5-18h5l4.9,18h-4l-1-4h-5.1l-1,4H235.7z M243,4.5L243,4.5l-1.8,7.8h3.6L243,4.5z"/>
	<path class="st0" d="M256.1,19h-3.8V1h7c2.6,0,4.2,1.6,4.2,4.7c0,2.3-0.9,4-3.3,4.4v0c0.8,0.1,3.3,0.3,3.3,3.5
		c0,1.1,0.1,4.5,0.4,5.3h-3.7c-0.5-1.1-0.4-2.3-0.4-3.5c0-2.1,0.2-4-2.7-4h-1V19z M256.1,8.8h1.7c1.5,0,1.9-1.5,1.9-2.6
		c0-1.7-0.7-2.4-1.9-2.4h-1.7V8.8z"/>
	<path class="st0" d="M266.4,1h6.3c4.9,0,5.9,3.3,5.9,8.9c0,2.8,0.4,9.1-6,9.1h-6.1V1z M270.1,16.2h1.8c2.3,0,2.8-1.7,2.8-6.2
		c0-3.3,0-6.2-2.6-6.2h-1.9V16.2z"/>
	<path class="st0" d="M286.5,19.3c-4.7,0-5.5-2.7-5.3-5.9h3.8c0,1.7,0.1,3.2,2.1,3.2c1.3,0,1.9-0.8,1.9-2c0-3.2-7.6-3.4-7.6-8.8
		c0-2.8,1.3-5.1,5.9-5.1c3.7,0,5.5,1.6,5.2,5.4h-3.7c0-1.3-0.2-2.7-1.8-2.7c-1.2,0-1.9,0.7-1.9,1.9c0,3.4,7.6,3.1,7.6,8.8
		C292.8,18.8,289.3,19.3,286.5,19.3z"/>
</g>
</svg>
