<?xml version="1.0" encoding="utf-8"?>
<!-- Generator: Adobe Illustrator 26.2.1, SVG Export Plug-In . SVG Version: 6.00 Build 0)  -->
<svg version="1.1" id="Layer_1" xmlns="http://www.w3.org/2000/svg" xmlns:xlink="http://www.w3.org/1999/xlink" x="0px" y="0px"
	 viewBox="0 0 353.92 54.41" style="enable-background:new 0 0 353.92 54.41;" xml:space="preserve">
<style type="text/css">
	.st0{fill:#FFFFFF;}
	.st1{fill:#F3C300;}
</style>
<polygon class="st0" points="100.04,0.58 103.48,0.58 105.56,12.32 105.61,12.32 108.14,0.58 112.08,0.58 114.48,12.32 
	114.52,12.32 116.52,0.58 119.8,0.58 116.25,17.3 112.55,17.3 110.04,5.07 110,5.07 107.23,17.3 103.59,17.3 "/>
<path class="st0" d="M125.9,3.8h-0.04l-1.53,7.22h3.19L125.9,3.8z M119.45,17.3l4.43-16.72h4.41l4.35,16.72h-3.53l-0.89-3.71h-4.57
	l-0.91,3.71H119.45z"/>
<polygon class="st0" points="134.66,17.3 134.66,0.58 138.01,0.58 138.01,14.52 143.02,14.52 143.02,17.3 "/>
<polygon class="st0" points="144.97,17.3 144.97,0.58 148.32,0.58 148.32,14.52 153.33,14.52 153.33,17.3 "/>
<path class="st0" d="M161.11,3.8h-0.05l-1.53,7.22h3.19L161.11,3.8z M154.66,17.3l4.43-16.72h4.41l4.35,16.72h-3.53l-0.89-3.71
	h-4.57l-0.91,3.71H154.66z"/>
<g>
	<path class="st0" d="M169.25,8.94c0-4.42,0-8.64,5.52-8.64c3.41,0,4.79,1.97,4.66,5.56h-3.28c0-2.22-0.38-3.06-1.37-3.06
		c-1.89,0-2.13,1.85-2.13,6.14s0.24,6.14,2.13,6.14c1.55,0,1.49-2.08,1.53-3.4h3.3c0,4.47-1.71,5.91-4.83,5.91
		C169.25,17.58,169.25,13.32,169.25,8.94"/>
</g>
<polygon class="st0" points="181.89,17.3 181.89,0.58 190.63,0.58 190.63,3.15 185.24,3.15 185.24,7.27 190.21,7.27 190.21,9.84 
	185.24,9.84 185.24,14.73 190.81,14.73 190.81,17.3 "/>
<polygon class="st0" points="205.2,7.27 205.2,0.58 208.55,0.58 208.55,17.3 205.2,17.3 205.2,9.84 201.37,9.84 201.37,17.3 
	198.02,17.3 198.02,0.58 201.37,0.58 201.37,7.27 "/>
<g>
	<path class="st0" d="M218.93,8.94c0-4.28-0.24-6.14-2.13-6.14c-1.89,0-2.13,1.85-2.13,6.14s0.24,6.14,2.13,6.14
		C218.69,15.08,218.93,13.22,218.93,8.94 M211.28,8.94c0-4.42,0-8.64,5.52-8.64c5.52,0,5.52,4.21,5.52,8.64c0,4.38,0,8.64-5.52,8.64
		C211.28,17.58,211.28,13.32,211.28,8.94"/>
	<path class="st0" d="M235.8,0.58v11.86c0,2.5-1.35,5.14-5.43,5.14c-3.68,0-5.46-1.99-5.46-5.14V0.58h3.35v11.63
		c0,2.06,0.84,2.87,2.06,2.87c1.46,0,2.13-1.02,2.13-2.87V0.58H235.8z"/>
	<path class="st0" d="M242.95,17.58c-4.15,0-4.92-2.55-4.75-5.44h3.35c0,1.6,0.07,2.94,1.91,2.94c1.13,0,1.69-0.76,1.69-1.9
		c0-3.01-6.74-3.2-6.74-8.18c0-2.62,1.2-4.7,5.28-4.7c3.26,0,4.88,1.53,4.66,5.02h-3.26c0-1.25-0.2-2.52-1.55-2.52
		c-1.09,0-1.73,0.62-1.73,1.78c0,3.17,6.74,2.9,6.74,8.15C248.53,17.07,245.49,17.58,242.95,17.58"/>
</g>
<polygon class="st0" points="250.95,17.3 250.95,0.58 259.69,0.58 259.69,3.15 254.3,3.15 254.3,7.27 259.27,7.27 259.27,9.84 
	254.3,9.84 254.3,14.73 259.87,14.73 259.87,17.3 "/>
<g>
	<path class="st0" d="M108.91,26.8c0.02-0.95-0.04-1.9-0.47-2.43c-0.42-0.53-1.37-0.72-1.8-0.72c-1.68,0-2.35,1.06-2.42,1.3
		c-0.07,0.18-0.47,0.6-0.47,3.47v4.47c0,4.1,1.29,4.59,2.86,4.59c0.62,0,2.5-0.23,2.53-3.5h2.11c0.09,5.28-3.48,5.28-4.52,5.28
		c-2,0-5.06-0.14-5.06-6.62v-4.72c0-4.72,2-6.07,5.15-6.07c3.17,0,4.39,1.71,4.19,4.96H108.91z"/>
</g>
<polygon class="st0" points="114.43,38.91 114.43,22.19 122.68,22.19 122.68,24.04 116.47,24.04 116.47,29.41 122.24,29.41 
	122.24,31.27 116.47,31.27 116.47,37.05 122.82,37.05 122.82,38.91 "/>
<polygon class="st0" points="136.9,22.19 136.9,38.91 134.1,38.91 127.78,24.41 127.74,24.41 127.74,38.91 125.92,38.91 
	125.92,22.19 128.8,22.19 135.04,36.5 135.08,36.5 135.08,22.19 "/>
<polygon class="st0" points="150.18,22.19 150.18,24.04 145.97,24.04 145.97,38.91 143.93,38.91 143.93,24.04 139.72,24.04 
	139.72,22.19 "/>
<polygon class="st0" points="152.93,38.91 152.93,22.19 161.18,22.19 161.18,24.04 154.97,24.04 154.97,29.41 160.74,29.41 
	160.74,31.27 154.97,31.27 154.97,37.05 161.31,37.05 161.31,38.91 "/>
<g>
	<path class="st0" d="M166.39,29.37h3.06c1.46,0,2.17-1.32,2.17-2.78c0-1.2-0.58-2.55-2.15-2.55h-3.08V29.37z M166.39,31.22v7.69
		h-2.04V22.19h5.52c2.84,0,3.84,2.08,3.84,4.17c0,1.97-1.04,3.47-2.93,3.82v0.05c1.84,0.3,2.51,0.95,2.62,4.31
		c0.02,0.72,0.24,3.33,0.55,4.38h-2.13c-0.58-1.16-0.44-3.33-0.62-5.56c-0.16-2.04-1.73-2.13-2.42-2.13H166.39z"/>
</g>
<polygon class="st0" points="181.5,38.91 181.5,22.19 189.43,22.19 189.43,24.04 183.54,24.04 183.54,29.41 189.12,29.41 
	189.12,31.27 183.54,31.27 183.54,38.91 "/>
<g>
	<path class="st0" d="M199.95,32.89v-5.65c0-3.5-2.31-3.61-2.95-3.61c-0.64,0-2.95,0.12-2.95,3.61v5.65c0,3.66,1.02,4.59,2.95,4.59
		C198.93,37.47,199.95,36.54,199.95,32.89 M191.96,32.79v-5.49c0-3.33,1.64-5.47,5.03-5.47c3.39,0,5.03,2.13,5.03,5.47v5.49
		c0,4.63-1.64,6.46-5.03,6.46C193.61,39.25,191.96,37.42,191.96,32.79"/>
	<path class="st0" d="M207.62,29.37h3.06c1.46,0,2.17-1.32,2.17-2.78c0-1.2-0.58-2.55-2.15-2.55h-3.08V29.37z M207.62,31.22v7.69
		h-2.04V22.19h5.52c2.84,0,3.84,2.08,3.84,4.17c0,1.97-1.04,3.47-2.93,3.82v0.05c1.84,0.3,2.51,0.95,2.62,4.31
		c0.02,0.72,0.24,3.33,0.56,4.38h-2.13c-0.58-1.16-0.44-3.33-0.62-5.56c-0.15-2.04-1.73-2.13-2.42-2.13H207.62z"/>
	<path class="st0" d="M223.87,33.72c0.05,1.51-0.13,3.75,1.95,3.75c2.17,0,2.31-1.95,2.31-3.98v-11.3h2.04v12.57
		c0,0.9-0.02,4.49-4.41,4.49c-0.89,0-2.59-0.32-3.37-1.64c-0.64-1.11-0.64-2.55-0.64-3.89H223.87z"/>
	<path class="st0" d="M241.79,32.89v-5.65c0-3.5-2.31-3.61-2.95-3.61c-0.64,0-2.95,0.12-2.95,3.61v5.65c0,3.66,1.02,4.59,2.95,4.59
		C240.77,37.47,241.79,36.54,241.79,32.89 M233.81,32.79v-5.49c0-3.33,1.64-5.47,5.03-5.47s5.03,2.13,5.03,5.47v5.49
		c0,4.63-1.64,6.46-5.03,6.46S233.81,37.42,233.81,32.79"/>
	<path class="st0" d="M247.36,22.19h2.04v10.7c0,3.66,1.06,4.59,2.99,4.59c1.93,0,2.99-0.93,2.99-4.59v-10.7h2.04v10.61
		c0,4.63-1.64,6.46-5.03,6.46c-3.39,0-5.03-1.83-5.03-6.46V22.19z"/>
	<path class="st0" d="M263.06,29.37h3.06c1.46,0,2.17-1.32,2.17-2.78c0-1.2-0.58-2.55-2.15-2.55h-3.08V29.37z M263.06,31.22v7.69
		h-2.04V22.19h5.52c2.84,0,3.84,2.08,3.84,4.17c0,1.97-1.04,3.47-2.93,3.82v0.05c1.84,0.3,2.51,0.95,2.62,4.31
		c0.02,0.72,0.24,3.33,0.55,4.38h-2.13c-0.58-1.16-0.44-3.33-0.62-5.56c-0.15-2.04-1.73-2.13-2.42-2.13H263.06z"/>
</g>
<polygon class="st0" points="284.75,22.19 284.75,38.91 281.96,38.91 275.63,24.41 275.59,24.41 275.59,38.91 273.77,38.91 
	273.77,22.19 276.66,22.19 282.89,36.5 282.93,36.5 282.93,22.19 "/>
<path class="st0" d="M293.91,24.16h-0.04l-2.51,8.92h5.12L293.91,24.16z M292.67,22.19h2.59l5.21,16.72h-2.28l-1.15-3.98h-6.19
	l-1.2,3.98h-2.06L292.67,22.19z"/>
<polygon class="st0" points="303.24,38.91 303.24,22.19 305.28,22.19 305.28,37.05 311.16,37.05 311.16,38.91 "/>
<rect x="313.96" y="22.19" class="st0" width="2.04" height="16.72"/>
<g>
	<path class="st0" d="M321.43,33.93v0.49c0,2.27,1.37,2.99,2.68,2.99c1.62,0,2.86-0.72,2.86-2.71c0-3.7-7.18-3.29-7.18-8.31
		c0-2.96,2.02-4.54,4.7-4.54c2.93,0,4.57,1.48,4.43,4.89h-2.13c0.02-1.83-0.53-3.03-2.46-3.03c-1.22,0-2.46,0.65-2.46,2.45
		c0,3.68,7.18,3.15,7.18,8.45c0,3.52-2.33,4.66-4.97,4.66c-4.72,0.05-4.72-3.73-4.68-5.33H321.43z"/>
</g>
<polygon class="st0" points="341.85,22.19 341.85,24.04 337.64,24.04 337.64,38.91 335.6,38.91 335.6,24.04 331.39,24.04 
	331.39,22.19 "/>
<g>
	<path class="st0" d="M346.05,33.93v0.49c0,2.27,1.37,2.99,2.68,2.99c1.62,0,2.86-0.72,2.86-2.71c0-3.7-7.18-3.29-7.18-8.31
		c0-2.96,2.02-4.54,4.7-4.54c2.93,0,4.57,1.48,4.43,4.89h-2.13c0.02-1.83-0.53-3.03-2.46-3.03c-1.22,0-2.46,0.65-2.46,2.45
		c0,3.68,7.18,3.15,7.18,8.45c0,3.52-2.33,4.66-4.97,4.66c-4.72,0.05-4.72-3.73-4.68-5.33H346.05z"/>
</g>
<rect x="86.06" y="0.54" class="st0" width="0.74" height="53.51"/>
<polygon class="st1" points="50.46,0.54 35.83,21.64 21.2,0.54 0,0.54 0,15.58 5.47,15.58 5.47,39.01 0,39.01 0,54.05 26.99,54.05 
	26.99,39.01 21.15,39.01 21.15,23.77 35.83,44.71 50.5,23.77 50.5,39.01 44.67,39.01 44.67,54.05 71.65,54.05 71.65,39.01 
	66.18,39.01 66.18,15.58 71.65,15.58 71.65,0.54 "/>
<g>
	<path class="st0" d="M151.48,50.89c0.01,2.26,0.01,2.57,1.15,2.59v0.55h-3.94v-0.55c1.01-0.08,1.12-0.25,1.13-1.31
		c0.01-0.41,0.01-0.87,0.01-1.27v-3.57c0-1.18-0.01-1.6-0.05-1.92c-0.07-0.54-0.32-0.65-1.09-0.72v-0.53l4.27,0.02
		c2.33,0,3.06,1.16,3.06,2.52c0,0.95-0.56,2.19-1.86,2.6l1.67,3.04c0.6,1.16,0.92,1.43,1.69,1.54v0.33c-0.2,0.02-0.4,0.03-0.62,0.03
		c-1.78,0-2.51-0.64-3.26-2.3l-0.52-1.16c-0.56-1.24-0.74-1.16-1.64-1.18V50.89z M151.48,48.74c0.25,0.05,0.61,0.1,0.88,0.1
		c1.07,0.01,1.88-0.87,1.92-1.66c0.06-1.14-0.5-2.13-2.23-2.13c-0.24,0-0.39,0.01-0.57,0.05V48.74z M272.05,49.68v0.53
		c-0.85,0.05-0.85,0.31-0.88,2.18v0.74c-0.73,0.48-1.78,1.16-3.63,1.16c-3.25,0-4.8-2.57-4.8-5.15c0-3.15,2.04-5.21,4.61-5.21
		c1.61,0,2.54,0.63,3.31,1.12l0.49-0.59l0.07,3.08l-0.38,0.07c-0.19-0.58-0.48-1.26-1.19-2c-0.31-0.32-0.92-0.73-1.87-0.73
		c-1.64,0-3.01,1.45-3.01,4.29c0,2.26,1.07,4.2,2.91,4.2c1.05,0,1.59-0.77,1.64-0.83c0.17-0.27,0.21-0.5,0.19-0.93
		c-0.04-1.26-0.2-1.28-1.25-1.4v-0.53H272.05z M147.1,54.03c0-0.71,0.12-1.88,0.2-2.55h-0.45c-0.32,1.76-1.27,1.67-2.63,1.67
		c-1.26,0-1.51-0.35-1.51-0.99V49.4h1.01c1.16,0,1.5,0.1,1.5,1.2h0.45v-3.25h-0.45c-0.09,0.87-0.27,1.17-1.48,1.17h-1.03v-3.47h1.16
		c1.61,0,2.18,0.12,2.4,1.46h0.43l-0.06-2.34h-6.72v0.53c0.68,0.07,0.97,0.11,1.07,0.58c0.07,0.31,0.08,1.39,0.08,1.78v3.47
		c0,0.26-0.01,1.45-0.02,1.69c-0.03,1.08-0.15,1.18-1.12,1.27v0.55H147.1z M183.74,54.03v-0.54c0.74-0.08,1.02-0.1,1.2-0.3
		c0.22-0.22,0.22-0.47,0.22-1.55v-1.73l-2.5-4.06c-0.68-1.06-0.7-1.09-1.6-1.14v-0.55h4.91v0.55c-0.99,0.03-1.43,0.05-1.43,0.53
		c0,0.27,0.17,0.57,0.42,0.99l1.44,2.47l1.33-2.45c0.24-0.49,0.38-0.78,0.38-1c0-0.47-0.39-0.49-1.04-0.53v-0.55h3.68v0.55
		c-0.95,0.03-1.23,0.32-2.3,2.16l-1.47,2.57v2.05c0,1.79,0.01,1.93,1.41,2v0.54H183.74z M139.02,44.17v0.53
		c-0.91,0.14-1.04,0.4-1.81,2.36l-2.87,7.16h-0.51l-2.58-7.27c-0.64-1.87-0.72-2.09-1.67-2.25v-0.53h4.48v0.53
		c-0.76,0.03-1.26,0.05-1.26,0.63c0,0.28,0.07,0.52,0.32,1.34l1.64,5.01l1.92-5.18c0.12-0.35,0.28-0.8,0.28-1.04
		c0-0.71-0.67-0.74-1.26-0.75v-0.53H139.02z M105.57,44.17v0.53c-1.25,0.09-1.25,0.14-1.27,2.23v2.31c0,1.21,0.02,2.24,0.63,3.16
		c0.48,0.73,1.31,0.83,1.72,0.83c1.35,0,2.09-0.73,2.42-1.89c0.27-0.92,0.28-2.65,0.28-3.79c0-0.36,0-1.54-0.01-1.85
		c-0.06-0.9-0.5-0.93-1.34-0.99v-0.53h3.59v0.53c-0.88-0.02-1.07,0.19-1.12,1.17c-0.01,0.23-0.12,2.97-0.13,3.39
		c-0.03,0.75-0.07,1.49-0.23,2.2c-0.64,2.65-3.11,2.79-3.77,2.79c-0.52,0-1.59-0.08-2.47-0.7c-1.4-0.99-1.42-2.47-1.42-4.06v-2.23
		c-0.01-1.06-0.01-1.54-0.04-1.79c-0.08-0.61-0.37-0.74-1.08-0.78v-0.53H105.57z M173.55,54.03v-0.42c0.87-0.02,1.11-0.35,1.11-1.13
		v-7.26h-1.18c-1.07,0-1.77-0.05-1.86,1.72h-0.49l0.08-2.76h8.57l0.08,2.76h-0.5c-0.08-1.76-0.78-1.72-1.85-1.72h-1.17v7.26
		c0,0.78,0.24,1.11,1.11,1.13v0.42H173.55z M158.04,50.96l0.48-0.05c0.52,1.6,1.38,2.47,2.8,2.47c1,0,1.89-0.45,1.89-1.51
		c0-1.12-1.03-1.56-1.48-1.76c-0.38-0.16-0.77-0.28-1.15-0.44c-0.77-0.29-2.23-0.92-2.23-2.83c0-1.84,1.39-2.88,3.01-2.88
		c0.63,0,1.36,0.14,2.17,0.67l0.57-0.43l0.31,2.92l-0.47,0.1c-0.16-0.64-0.28-0.94-0.65-1.46c-0.45-0.62-1.09-0.9-1.84-0.9
		c-1,0-1.59,0.5-1.59,1.29c0,1.17,1.11,1.56,2.16,1.92c0.54,0.19,0.98,0.34,1.36,0.57c0.75,0.46,1.37,1.33,1.37,2.51
		c0,1.71-1.34,3.11-3.33,3.11c-1.28,0-2.08-0.53-2.44-0.78l-0.78-0.59L158.04,50.96z M112.78,54.03v-0.54
		c0.78-0.04,1.07-0.05,1.18-0.61c0.13-0.66,0.17-6.5,0.18-7.52c-0.52-0.5-0.74-0.6-1.36-0.65v-0.53h2.83
		c0.79,1.17,0.96,1.44,2.35,3.24l2.63,3.4v-4.41c-0.01-1.56-0.05-1.65-1.55-1.7v-0.53h3.71v0.53c-1.03,0.01-1.12,0.23-1.13,1.84
		l-0.14,7.61h-0.56l-0.84-1.1c-0.43-0.56-0.85-1.11-1.28-1.66l-3.73-4.8v5.11c0,1.59,0.1,1.65,1.55,1.8v0.54H112.78z M165.84,54.03
		v-0.54c0.92-0.12,1.11-0.23,1.12-1.27v-1.25v-3.99c-0.01-2.05-0.01-2.11-1.12-2.27v-0.53h3.91v0.53c-1.11,0.11-1.11,0.16-1.11,2.27
		v3.98c0,0.35,0.01,1.45,0.04,1.74c0.07,0.6,0.33,0.74,1.07,0.79v0.54H165.84z M124.27,54.03v-0.54c0.93-0.12,1.11-0.23,1.13-1.27
		v-1.25v-3.99c-0.01-2.05-0.01-2.11-1.13-2.27v-0.53h3.92v0.53c-1.11,0.11-1.11,0.16-1.11,2.27v3.98c0,0.35,0.01,1.45,0.04,1.74
		c0.07,0.6,0.33,0.74,1.07,0.79v0.54H124.27z M205.37,53.49v0.54h3.91v-0.54c-0.98-0.1-1.1-0.19-1.13-1.27l0.01-2.81h1.05
		c1.05,0,1.61,0.1,1.68,1.21h0.46v-3.25h-0.46c-0.05,1.06-0.33,1.17-1.48,1.17h-1.24v-3.41c0.34-0.05,0.52-0.06,1.12-0.06
		c1.85,0,2.44-0.01,2.69,1.53h0.46l-0.15-2.41h-6.92v0.53c0.68,0.07,0.98,0.11,1.07,0.57c0.06,0.31,0.08,1.39,0.08,1.79v3.46
		c0,0.27-0.02,1.46-0.03,1.69C206.47,53.3,206.35,53.39,205.37,53.49 M199.71,53.38c0.54-0.02,1.29-0.29,1.87-1.22
		c0.66-1.07,0.8-2.05,0.76-3.33c-0.04-1.27-0.38-2.36-1.07-3.13c-0.3-0.34-0.9-0.84-1.69-0.81c-0.79,0-1.37,0.52-1.66,0.87
		c-0.67,0.79-0.97,1.9-0.97,3.17c0,1.28,0.16,2.26,0.86,3.31C198.42,53.13,199.18,53.38,199.71,53.38 M204.43,49.1
		c0,3.41-2.22,5.19-4.73,5.19c-2.74,0-4.89-2.07-4.89-5.21c0-2.69,1.73-5.12,4.76-5.11C202.43,43.99,204.43,46.11,204.43,49.1
		 M283.14,54.03v-0.53c0.78-0.05,1.07-0.05,1.18-0.62c0.13-0.65,0.17-6.5,0.18-7.52c-0.52-0.5-0.73-0.6-1.36-0.66v-0.53h2.84
		c0.79,1.17,0.96,1.44,2.35,3.24l2.63,3.4v-4.41c-0.01-1.56-0.05-1.65-1.55-1.7v-0.53h3.72v0.53c-1.03,0.02-1.12,0.24-1.13,1.84
		l-0.14,7.61h-0.57l-0.84-1.1c-0.42-0.55-0.85-1.12-1.28-1.66l-3.73-4.8v5.1c0,1.59,0.11,1.65,1.55,1.8v0.53H283.14z M224.84,54.03
		v-0.53c1.19-0.09,1.19-0.14,1.2-1.97v-4.95l-3.3,7.57h-0.83l-3.03-7.68l-0.07,5.79c0,0.97,0.11,1.15,1.11,1.23v0.53h-3.27v-0.53
		c0.76-0.05,1.06-0.15,1.11-0.82c0.03-0.27,0.07-1.09,0.08-1.64l0.14-4.13c0.01-0.32,0.01-0.8,0.01-1.15c0-0.97-0.18-1.05-1.03-1.06
		v-0.53h2.97l2.94,7.48l3.23-7.48h2.87v0.58c-1.12,0.07-1.13,0.2-1.12,1.73v4.06c0,0.68,0.01,1.51,0.05,2.01
		c0.05,0.73,0.32,0.86,1.07,0.93v0.53H224.84z M230.78,54.03v-0.53c0.92-0.13,1.11-0.24,1.12-1.27v-1.26v-3.99
		c-0.01-2.05-0.01-2.11-1.12-2.27v-0.53h3.91v0.53c-1.11,0.11-1.11,0.17-1.11,2.27v3.98c0,0.35,0.02,1.45,0.04,1.74
		c0.06,0.6,0.33,0.74,1.06,0.8v0.53H230.78z M257.66,54.03v-0.53c0.92-0.13,1.11-0.24,1.12-1.27v-1.26v-3.99
		c-0.02-2.05-0.02-2.11-1.12-2.27v-0.53h3.92v0.53c-1.11,0.11-1.11,0.17-1.11,2.27v3.98c0,0.35,0.01,1.45,0.04,1.74
		c0.07,0.6,0.34,0.74,1.07,0.8v0.53H257.66z M246.01,54.03v-0.53c1.07-0.1,1.08-0.34,1.08-1.28c0.01-0.35,0.01-0.7,0.01-1.05v-4.13
		c0-0.64,0-1.28-0.04-1.59c-0.05-0.58-0.32-0.67-1.05-0.74v-0.53h4.04v0.53c-0.79,0.09-1.09,0.11-1.18,0.66
		c-0.07,0.32-0.08,1.04-0.08,1.63v1.36c0.81,0.04,1.38,0.07,2.17,0.07c0.8,0,1.43-0.02,2.24-0.07v-1.65c-0.01-1.8-0.03-1.87-1.31-2
		v-0.53h4.09v0.53c-1.1,0.14-1.1,0.15-1.1,2.03v4.16c0,0.39,0.01,1.63,0.05,1.92c0.07,0.52,0.35,0.61,1.04,0.68v0.53h-4.09v-0.53
		c0.95-0.11,1.2-0.14,1.28-0.82c0.03-0.28,0.03-0.66,0.03-1.37v-1.81c-0.75-0.03-1.37-0.07-2.15-0.07c-0.81,0-1.45,0.03-2.26,0.07
		v1.81c0.01,2.05,0.04,2.05,1.26,2.19v0.53H246.01z M244.43,51.85c-0.42,0.71-1.42,2.45-4.02,2.45c-2.84,0-4.68-2.19-4.68-5.07
		c0-2.67,1.56-5.29,4.74-5.29c1.68,0,2.57,0.74,3.12,1.18l0.64-0.61l0.05,2.99l-0.42,0.08c-0.16-0.57-0.4-1.03-1.02-1.73
		c-0.29-0.32-0.98-0.96-1.97-0.96c-1.71,0-3.05,1.45-3.05,4.01c0,2.16,1.11,4.2,3.28,4.2c1.65,0,2.27-0.96,2.77-1.7L244.43,51.85z
		 M277.27,46.13l-1.38,4.08h2.71L277.27,46.13z M278.12,54.03v-0.53c0.64-0.05,1.14-0.1,1.14-0.64c0-0.2-0.06-0.4-0.11-0.59l-0.28-1
		h-3.32l-0.29,0.85c-0.06,0.21-0.12,0.41-0.12,0.62c0,0.7,0.71,0.74,1.28,0.77v0.53h-3.89v-0.53c0.99-0.05,1.31-0.25,1.67-1.28
		l2.55-7.31l-0.15-0.24c1.09-0.38,1.4-0.55,1.87-0.91c0.18,0.67,0.21,0.75,0.42,1.45l2.09,6.69c0.37,1.19,0.55,1.48,1.54,1.59v0.53
		H278.12z"/>
</g>
</svg>
