<?xml version="1.0" encoding="utf-8"?>
<!-- Generator: Adobe Illustrator 26.2.1, SVG Export Plug-In . SVG Version: 6.00 Build 0)  -->
<svg version="1.1" id="Layer_1" xmlns="http://www.w3.org/2000/svg" xmlns:xlink="http://www.w3.org/1999/xlink" x="0px" y="0px"
	 viewBox="0 0 375.62 45.91" style="enable-background:new 0 0 375.62 45.91;" xml:space="preserve">
<style type="text/css">
	.st0{fill:#FFFFFF;}
	.st1{fill:#F3C300;}
</style>
<polygon class="st0" points="104.4,0.66 102,14.2 101.95,14.2 99.06,0.66 94.31,0.66 91.27,14.2 91.21,14.2 88.7,0.66 84.57,0.66 
	88.84,19.94 93.22,19.94 96.55,5.84 96.61,5.84 99.63,19.94 104.08,19.94 108.36,0.66 "/>
<path class="st0" d="M114.9,4.38h0.05l1.95,8.33h-3.85L114.9,4.38z M112.53,0.66l-5.34,19.28h3.98l1.1-4.27h5.5l1.07,4.27h4.25
	l-5.23-19.28H112.53z"/>
<polygon class="st0" points="124.81,0.66 124.81,19.94 134.88,19.94 134.88,16.74 128.84,16.74 128.84,0.66 "/>
<polygon class="st0" points="136.56,0.66 136.56,19.94 146.63,19.94 146.63,16.74 140.6,16.74 140.6,0.66 "/>
<path class="st0" d="M155.26,4.38h0.05l1.95,8.33h-3.84L155.26,4.38z M152.88,0.66l-5.34,19.28h3.98l1.09-4.27h5.5l1.07,4.27h4.25
	l-5.23-19.28H152.88z"/>
<g>
	<path class="st0" d="M164.39,10.3c0-5.1,0-9.96,6.65-9.96c4.11,0,5.77,2.27,5.61,6.41h-3.95c0-2.56-0.45-3.52-1.66-3.52
		c-2.27,0-2.56,2.14-2.56,7.08c0,4.94,0.29,7.08,2.56,7.08c1.87,0,1.79-2.4,1.84-3.93h3.98c0,5.15-2.06,6.81-5.82,6.81
		C164.39,20.26,164.39,15.35,164.39,10.3"/>
</g>
<polygon class="st0" points="178.92,0.66 178.92,19.94 189.65,19.94 189.65,16.98 182.95,16.98 182.95,11.35 188.93,11.35 
	188.93,8.38 182.95,8.38 182.95,3.63 189.44,3.63 189.44,0.66 "/>
<polygon class="st0" points="205.71,0.66 205.71,8.38 201.08,8.38 201.08,0.66 197.05,0.66 197.05,19.94 201.08,19.94 201.08,11.35 
	205.71,11.35 205.71,19.94 209.74,19.94 209.74,0.66 "/>
<g>
	<path class="st0" d="M221.52,10.3c0-4.94-0.29-7.08-2.56-7.08c-2.27,0-2.56,2.14-2.56,7.08c0,4.94,0.3,7.08,2.56,7.08
		C221.22,17.38,221.52,15.24,221.52,10.3 M212.31,10.3c0-5.1,0-9.96,6.65-9.96c6.65,0,6.65,4.86,6.65,9.96c0,5.05,0,9.96-6.65,9.96
		C212.31,20.26,212.31,15.35,212.31,10.3"/>
	<path class="st0" d="M241.14,0.66v13.67c0,2.88-1.63,5.93-6.54,5.93c-4.43,0-6.57-2.3-6.57-5.93V0.66h4.03v13.4
		c0,2.38,1.02,3.31,2.48,3.31c1.76,0,2.56-1.17,2.56-3.31V0.66H241.14z"/>
	<path class="st0" d="M249.05,20.26c-4.99,0-5.93-2.94-5.72-6.28h4.03c0,1.84,0.08,3.39,2.3,3.39c1.36,0,2.03-0.88,2.03-2.19
		c0-3.47-8.12-3.69-8.12-9.43c0-3.02,1.44-5.42,6.36-5.42c3.92,0,5.87,1.76,5.61,5.8h-3.92c0-1.44-0.24-2.91-1.87-2.91
		c-1.31,0-2.08,0.72-2.08,2.06c0,3.66,8.12,3.34,8.12,9.4C255.78,19.68,252.12,20.26,249.05,20.26"/>
</g>
<polygon class="st0" points="258,0.66 258,19.94 268.73,19.94 268.73,16.98 262.03,16.98 262.03,11.35 268.01,11.35 268.01,8.38 
	262.03,8.38 262.03,3.63 268.52,3.63 268.52,0.66 "/>
<g>
	<path class="st0" d="M95.25,30.98c0.03-1.09-0.05-2.19-0.56-2.8c-0.51-0.61-1.66-0.83-2.16-0.83c-2.03,0-2.83,1.23-2.91,1.5
		c-0.08,0.21-0.56,0.7-0.56,4.01V38c0,4.73,1.55,5.29,3.44,5.29c0.75,0,3.02-0.27,3.04-4.03h2.54c0.11,6.09-4.19,6.09-5.45,6.09
		c-2.4,0-6.09-0.16-6.09-7.64v-5.45c0-5.45,2.4-6.99,6.2-6.99c3.82,0,5.29,1.97,5.05,5.71H95.25z"/>
</g>
<polygon class="st0" points="101.18,25.66 101.18,44.94 111.27,44.94 111.27,42.81 103.63,42.81 103.63,36.13 110.57,36.13 
	110.57,33.99 103.63,33.99 103.63,27.8 111.11,27.8 111.11,25.66 "/>
<polygon class="st0" points="125.34,25.66 125.34,42.17 125.29,42.17 117.79,25.66 114.32,25.66 114.32,44.94 116.51,44.94 
	116.51,28.23 116.56,28.23 124.17,44.94 127.53,44.94 127.53,25.66 "/>
<polygon class="st0" points="130.21,25.66 130.21,27.8 135.28,27.8 135.28,44.94 137.74,44.94 137.74,27.8 142.81,27.8 
	142.81,25.66 "/>
<polygon class="st0" points="145.4,25.66 145.4,44.94 155.5,44.94 155.5,42.81 147.86,42.81 147.86,36.13 154.8,36.13 154.8,33.99 
	147.86,33.99 147.86,27.8 155.34,27.8 155.34,25.66 "/>
<g>
	<path class="st0" d="M160.89,33.94h3.69c1.76,0,2.62-1.52,2.62-3.2c0-1.39-0.69-2.94-2.59-2.94h-3.71V33.94z M160.89,36.08v8.86
		h-2.46V25.66h6.65c3.42,0,4.62,2.4,4.62,4.81c0,2.27-1.25,4.01-3.52,4.41v0.05c2.22,0.35,3.02,1.1,3.15,4.97
		c0.03,0.83,0.29,3.84,0.67,5.05h-2.56c-0.69-1.33-0.53-3.84-0.75-6.41c-0.19-2.35-2.08-2.46-2.91-2.46H160.89z"/>
</g>
<polygon class="st0" points="177.8,25.66 177.8,44.94 180.26,44.94 180.26,36.13 186.99,36.13 186.99,33.99 180.26,33.99 
	180.26,27.8 187.36,27.8 187.36,25.66 "/>
<g>
	<path class="st0" d="M199.32,38v-6.51c0-4.03-2.78-4.17-3.55-4.17s-3.55,0.13-3.55,4.17V38c0,4.22,1.23,5.29,3.55,5.29
		C198.09,43.29,199.32,42.22,199.32,38 M189.71,37.89v-6.33c0-3.85,1.97-6.3,6.06-6.3s6.06,2.46,6.06,6.3v6.33
		c0,5.34-1.97,7.45-6.06,7.45S189.71,43.23,189.71,37.89"/>
	<path class="st0" d="M207.84,33.94h3.68c1.76,0,2.62-1.52,2.62-3.2c0-1.39-0.7-2.94-2.59-2.94h-3.71V33.94z M207.84,36.08v8.86
		h-2.46V25.66h6.65c3.42,0,4.62,2.4,4.62,4.81c0,2.27-1.25,4.01-3.52,4.41v0.05c2.22,0.35,3.02,1.1,3.15,4.97
		c0.03,0.83,0.29,3.84,0.67,5.05h-2.56c-0.7-1.33-0.53-3.84-0.75-6.41c-0.19-2.35-2.08-2.46-2.91-2.46H207.84z"/>
	<path class="st0" d="M226.14,38.96c0.05,1.74-0.16,4.33,2.35,4.33c2.62,0,2.78-2.24,2.78-4.59V25.66h2.46v14.5
		c0,1.04-0.03,5.18-5.31,5.18c-1.07,0-3.12-0.38-4.06-1.9c-0.77-1.28-0.77-2.94-0.77-4.49H226.14z"/>
	<path class="st0" d="M247,38v-6.51c0-4.03-2.78-4.17-3.55-4.17s-3.55,0.13-3.55,4.17V38c0,4.22,1.23,5.29,3.55,5.29
		S247,42.22,247,38 M237.38,37.89v-6.33c0-3.85,1.97-6.3,6.06-6.3s6.06,2.46,6.06,6.3v6.33c0,5.34-1.97,7.45-6.06,7.45
		S237.38,43.23,237.38,37.89"/>
	<path class="st0" d="M253.01,25.66h2.46V38c0,4.22,1.28,5.29,3.6,5.29c2.32,0,3.6-1.07,3.6-5.29V25.66h2.46v12.23
		c0,5.34-1.97,7.45-6.06,7.45c-4.09,0-6.06-2.11-6.06-7.45V25.66z"/>
	<path class="st0" d="M271.19,33.94h3.69c1.76,0,2.62-1.52,2.62-3.2c0-1.39-0.69-2.94-2.59-2.94h-3.71V33.94z M271.19,36.08v8.86
		h-2.46V25.66h6.65c3.42,0,4.62,2.4,4.62,4.81c0,2.27-1.25,4.01-3.52,4.41v0.05c2.22,0.35,3.02,1.1,3.15,4.97
		c0.03,0.83,0.3,3.84,0.67,5.05h-2.56c-0.69-1.33-0.53-3.84-0.75-6.41c-0.19-2.35-2.08-2.46-2.91-2.46H271.19z"/>
</g>
<polygon class="st0" points="294.4,25.66 294.4,42.17 294.35,42.17 286.84,25.66 283.37,25.66 283.37,44.94 285.56,44.94 
	285.56,28.23 285.62,28.23 293.22,44.94 296.59,44.94 296.59,25.66 "/>
<path class="st0" d="M306.85,27.93h0.05l3.1,10.28h-6.17L306.85,27.93z M305.41,25.66l-6.12,19.28h2.48l1.44-4.59h7.45l1.39,4.59
	h2.75l-6.28-19.28H305.41z"/>
<polygon class="st0" points="317.42,25.66 317.42,44.94 326.96,44.94 326.96,42.81 319.88,42.81 319.88,25.66 "/>
<rect x="329.6" y="25.66" class="st0" width="2.46" height="19.28"/>
<g>
	<path class="st0" d="M337.85,39.2v0.56c0,2.62,1.66,3.45,3.23,3.45c1.95,0,3.45-0.83,3.45-3.12c0-4.27-8.65-3.79-8.65-9.59
		c0-3.42,2.43-5.23,5.66-5.23c3.52,0,5.5,1.71,5.34,5.63h-2.56c0.02-2.11-0.64-3.5-2.97-3.5c-1.47,0-2.96,0.75-2.96,2.83
		c0,4.25,8.65,3.63,8.65,9.75c0,4.06-2.8,5.37-5.98,5.37c-5.69,0.05-5.69-4.3-5.63-6.14H337.85z"/>
</g>
<polygon class="st0" points="349.1,25.66 349.1,27.8 354.17,27.8 354.17,44.94 356.63,44.94 356.63,27.8 361.7,27.8 361.7,25.66 "/>
<g>
	<path class="st0" d="M366.03,39.2v0.56c0,2.62,1.65,3.45,3.23,3.45c1.95,0,3.45-0.83,3.45-3.12c0-4.27-8.65-3.79-8.65-9.59
		c0-3.42,2.43-5.23,5.66-5.23c3.52,0,5.5,1.71,5.34,5.63h-2.56c0.03-2.11-0.64-3.5-2.96-3.5c-1.47,0-2.96,0.75-2.96,2.83
		c0,4.25,8.65,3.63,8.65,9.75c0,4.06-2.8,5.37-5.98,5.37c-5.69,0.05-5.69-4.3-5.64-6.14H366.03z"/>
</g>
<rect x="74.03" y="0.67" class="st0" width="0.64" height="44.07"/>
<polygon class="st1" points="43.41,0.67 30.82,18.04 18.24,0.67 0,0.67 0,13.06 4.7,13.06 4.7,32.35 0,32.35 0,44.74 23.21,44.74 
	23.21,32.35 18.2,32.35 18.2,19.8 30.82,37.05 43.44,19.8 43.44,32.35 38.43,32.35 38.43,44.74 61.63,44.74 61.63,32.35 
	56.93,32.35 56.93,13.06 61.63,13.06 61.63,0.67 "/>
</svg>
