<?xml version="1.0" encoding="utf-8"?>
<!-- Generator: Adobe Illustrator 22.1.0, SVG Export Plug-In . SVG Version: 6.00 Build 0)  -->
<svg version="1.1" id="Layer_1" xmlns="http://www.w3.org/2000/svg" xmlns:xlink="http://www.w3.org/1999/xlink" x="0px" y="0px"
	 viewBox="0 0 900 56.4" style="enable-background:new 0 0 900 56.4;" xml:space="preserve">
<style type="text/css">
	.st0{clip-path:url(#SVGID_2_);fill:#89724E;}
	.st1{clip-path:url(#SVGID_4_);fill:#FFFFFF;}
	.st2{clip-path:url(#SVGID_6_);fill:#011E41;}
	.st3{clip-path:url(#SVGID_8_);}
	.st4{clip-path:url(#SVGID_10_);fill:#F3C317;}
</style>
<g>
	<defs>
		<rect id="SVGID_5_" x="2" y="1" width="896.3" height="53.8"/>
	</defs>
	<clipPath id="SVGID_2_">
		<use xlink:href="#SVGID_5_"  style="overflow:visible;"/>
	</clipPath>
	<path style="clip-path:url(#SVGID_2_);fill:#011E41;" d="M898.3,36.9c0-15.2-20.3-14.4-20.3-23.5c0-3.3,1.9-5.1,5.2-5.1
		c4.1,0,4.7,3.7,4.7,7.3h9.8c0.7-10.1-4.2-14.5-14-14.5c-12.3,0-15.9,6-15.9,13.6c0,14.4,20.3,14.9,20.3,23.6c0,3.3-1.7,5.5-5.1,5.5
		c-5.5,0-5.7-3.9-5.7-8.5h-10.1c-0.5,8.3,1.8,15.7,14.3,15.7C889.2,50.8,898.3,49.3,898.3,36.9 M829.4,1.8v8h11.2V50h10.1V9.8h11.2
		v-8H829.4z M796.4,50V14.8h0.1L809.7,50H823V1.8h-9.4v33.4h-0.1L800.6,1.8H787V50H796.4z M779.6,50v-7.4h-16.8V28.5h15v-7.4h-15
		V9.2h16.2V1.8h-26.3V50H779.6z M745.1,36.9c0-15.2-20.3-14.4-20.3-23.5c0-3.3,1.9-5.1,5.2-5.1c4.1,0,4.7,3.7,4.7,7.3h9.8
		c0.7-10.1-4.2-14.5-14-14.5c-12.3,0-15.9,6-15.9,13.6c0,14.4,20.3,14.9,20.3,23.6c0,3.3-1.7,5.5-5.1,5.5c-5.6,0-5.8-3.9-5.8-8.5
		H714c-0.5,8.3,1.8,15.7,14.3,15.7C736,50.8,745.1,49.3,745.1,36.9 M707.4,50v-7.4h-16.8V28.5h15v-7.4h-15V9.2h16.2V1.8h-26.3V50
		H707.4z M652.5,30h2.6c7.8,0,7.2,4.9,7.2,10.6c0,3.1-0.3,6.4,1.1,9.4h9.9c-0.9-2-1.1-11.1-1.1-14.2c0-8.7-6.5-9.2-8.7-9.5v-0.1
		c6.5-1.1,8.9-5.7,8.9-11.8c0-8.2-4.4-12.6-11.3-12.6h-18.6V50h10.1V30z M652.5,9.2h4.5c3.2,0,5.1,1.7,5.1,6.4
		c0,3.1-1.1,7.1-5.1,7.1h-4.5V9.2z M604.5,50h10.1V30.4h7.5c11.8,0,13.4-8.7,13.4-14.2c0-8.8-3.6-14.4-12.8-14.4h-18.2V50z
		 M614.5,9.2h5.1c4.5,0,5.6,3.3,5.6,7.3c0,3.2-2.1,6.5-5.1,6.5h-5.6V9.2z M583.7,50v-7.4h-16.8V28.5h15v-7.4h-15V9.2h16.2V1.8h-26.3
		V50H583.7z M549.2,36.9c0-15.2-20.3-14.4-20.3-23.5c0-3.3,1.9-5.1,5.2-5.1c4.1,0,4.7,3.7,4.7,7.3h9.8c0.7-10.1-4.2-14.5-14-14.5
		c-12.3,0-15.9,6-15.9,13.6c0,14.4,20.3,14.9,20.3,23.6c0,3.3-1.7,5.5-5.1,5.5c-5.6,0-5.8-3.9-5.8-8.5H518
		c-0.5,8.3,1.8,15.7,14.3,15.7C540,50.8,549.2,49.3,549.2,36.9 M500.3,1.8v33.5c0,5.3-2,8.3-6.4,8.3c-3.7,0-6.2-2.3-6.2-8.3V1.8
		h-10.1V36c0,9.1,5.3,14.8,16.4,14.8c12.3,0,16.4-7.6,16.4-14.8V1.8H500.3z M452.8,50.8c16.6,0,16.6-12.3,16.6-24.9
		c0-12.8,0-24.9-16.6-24.9c-16.6,0-16.6,12.1-16.6,24.9C436.1,38.5,436.1,50.8,452.8,50.8 M452.8,43.6c-5.7,0-6.4-5.3-6.4-17.7
		c0-12.4,0.7-17.7,6.4-17.7c5.7,0,6.4,5.3,6.4,17.7C459.2,38.3,458.4,43.6,452.8,43.6 M405.9,21.1V1.8h-10.1V50h10.1V28.5h11.6V50
		h10.1V1.8h-10.1v19.3H405.9z M374.8,50v-7.4H358V28.5h15v-7.4h-15V9.2h16.2V1.8H348V50H374.8z M326.1,50.8c9.4,0,14.6-4.1,14.6-17
		h-9.9c-0.1,3.8,0.1,9.8-4.6,9.8c-5.7,0-6.4-5.3-6.4-17.7c0-12.4,0.7-17.7,6.4-17.7c3,0,4.1,2.4,4.1,8.8h9.9c0.4-10.4-3.7-16-14-16
		c-16.6,0-16.6,12.1-16.6,24.9C309.5,38.5,309.5,50.8,326.1,50.8 M289.5,31.9h-9.6l4.6-20.8h0.1L289.5,31.9z M275.2,50l2.7-10.7
		h13.8l2.7,10.7H305L291.9,1.8h-13.3L265.2,50H275.2z M260.9,50v-8h-15.1V1.8h-10.1V50H260.9z M229.5,50v-8h-15.1V1.8h-10.1V50
		H229.5z M182.4,31.9h-9.6l4.6-20.8h0.1L182.4,31.9z M168,50l2.7-10.7h13.8l2.7,10.7h10.6L184.7,1.8h-13.3L158.1,50H168z M109.9,50
		h11l8.3-35.3h0.1l7.5,35.3h11.2l10.7-48.2h-9.9l-6,33.9h-0.1l-7.2-33.9h-11.9L116,35.7h-0.1l-6.3-33.9H99.3L109.9,50z M66,22.4
		c-1.9-2.7-4.4-4.9-7.6-6.6c0.6,1.9,0.9,3.7,0.9,5.7c0,3.3-0.8,6.5-2.5,9.5c-1.7,3-4,5.6-7.2,7.9c-2.9,2.1-6.2,3.7-9.8,4.8
		c-3.7,1.1-7.5,1.7-11.5,1.7c-0.7,0-1.8,0-3.3-0.1c5,3.3,10.9,4.9,17.6,4.9c2.1,0,4.3-0.2,6.6-0.6c3.1,2.2,6.5,3.8,10.4,4.8
		c0.9,0.2,2,0.4,3.2,0.6c0.3,0,0.6-0.1,0.8-0.3c0.3-0.2,0.4-0.5,0.5-0.8c0-0.1,0-0.2,0-0.2c0-0.1,0-0.2,0-0.2c0-0.1,0-0.2-0.1-0.2
		c0-0.1-0.1-0.1-0.1-0.2c0,0-0.1-0.1-0.1-0.2c-0.1-0.1-0.1-0.1-0.1-0.2c0,0-0.1-0.1-0.2-0.2c-0.1-0.1-0.1-0.1-0.2-0.2
		c-0.1-0.2-0.4-0.5-0.9-0.9c-0.4-0.5-0.8-0.8-1-1.1c-0.2-0.3-0.5-0.6-0.8-1.1c-0.4-0.5-0.7-0.9-0.9-1.4c-0.3-0.5-0.5-1-0.8-1.6
		c3.1-1.8,5.5-4,7.3-6.6c1.8-2.6,2.6-5.4,2.6-8.4C68.8,27.9,67.9,25,66,22.4 M41.4,4.9c-4-1.7-8.4-2.6-13.2-2.6
		c-4.7,0-9.1,0.8-13.2,2.6c-4,1.7-7.2,4-9.6,7C3.2,14.7,2,17.9,2,21.4c0,3,0.9,5.7,2.6,8.3s4.2,4.8,7.3,6.6
		c-0.2,0.6-0.5,1.1-0.8,1.6c-0.3,0.5-0.6,1-0.9,1.4c-0.4,0.5-0.6,0.8-0.8,1.1c-0.2,0.3-0.5,0.6-1,1.1c-0.4,0.5-0.7,0.8-0.9,0.9
		c0,0-0.1,0.1-0.1,0.2s-0.1,0.1-0.2,0.2c0,0-0.1,0.1-0.2,0.2C7,43.2,7,43.2,7,43.3c0,0-0.1,0.1-0.1,0.2c0,0.1-0.1,0.2-0.1,0.2
		c0,0.1,0,0.2,0,0.2s0,0.2,0,0.2c0,0.3,0.2,0.6,0.4,0.8c0.2,0.2,0.5,0.3,0.8,0.3h0.1c1.2-0.2,2.3-0.4,3.2-0.6
		c3.8-1,7.3-2.6,10.4-4.8c2.2,0.4,4.4,0.6,6.6,0.6c4.7,0,9.1-0.8,13.2-2.6c4-1.7,7.2-4,9.6-7c2.3-2.9,3.5-6.1,3.5-9.6
		c0-3.5-1.2-6.6-3.5-9.6C48.6,8.9,45.5,6.6,41.4,4.9"/>
</g>
</svg>
